<svg xmlns="http://www.w3.org/2000/svg" width="170" height="170" fill="none"><g filter="url(#a)"><circle cx="85" cy="85" r="81" fill="#D9D9D9"/></g><circle cx="85" cy="85" r="83" stroke="#34BEED" stroke-width="4"/><path fill="#E4E4E4" d="M115.15 63.253c15.588-14.607 16.945-40.334-3.104-47.71A74 74 0 0 0 86.426 11C45.32 11 12 44.435 12 85.679a75 75 0 0 0 2.889 20.674c5.911 20.631 31.797 21.057 47.457 6.382z"/><path fill="#A1A0A4" d="M44 96.087v-22q0-5.198 2.09-7.143Q48.185 65 53.525 65h17.076v8.627H54.744q-1.686.174-2.033 1.77v17.492q0 1.881.412 2.508.58.976 2.202.976h15.277V105h-18.35q-1.452 0-3.082-.627-5.17-2-5.17-8.286m31.07 1.77V75h7.728v20.746q.234 1.65 2.492 1.65h4.767q2.267 0 2.492-1.65.065-.174.065-.46V75h7.719v22.857q0 .572-.113 1.373-.87 5.77-7.146 5.77H82.33q-6.267 0-7.139-5.77a9.4 9.4 0 0 1-.12-1.373m30.611-.627V82.032q0-.746.169-1.548Q107.068 75 113.231 75h10.51q6.387 0 7.203 6 .056.397.056 1.254v6l-17.479 6.516v.516q0 2.11 1.508 2.11h15.915V105h-16.963q-3.017 0-4.59-.857-3.71-2-3.71-6.913m7.719-9.198 9.76-3.548v-.286q-.234-.912-1.452-1.142a1.4 1.4 0 0 0-.411-.056H115.9q-1.685 0-2.323 1.143-.177.285-.177.801z"/><defs><filter id="a" width="176" height="176" x="-6" y="-6" color-interpolation-filters="sRGB" filterUnits="userSpaceOnUse"><feFlood flood-opacity="0" result="BackgroundImageFix"/><feBlend in="SourceGraphic" in2="BackgroundImageFix" result="shape"/><feColorMatrix in="SourceAlpha" result="hardAlpha" values="0 0 0 0 0 0 0 0 0 0 0 0 0 0 0 0 0 0 127 0"/><feOffset dx="-6" dy="-6"/><feGaussianBlur stdDeviation="7"/><feComposite in2="hardAlpha" k2="-1" k3="1" operator="arithmetic"/><feColorMatrix values="0 0 0 0 0 0 0 0 0 0 0 0 0 0 0 0 0 0 0.26 0"/><feBlend in2="shape" result="effect1_innerShadow_2202_80"/></filter></defs></svg>