<svg xmlns="http://www.w3.org/2000/svg" width="113.976" height="72.936"><path fill="#A1A0A4" d="M3.31 47.45V19.73q0-6.55 2.59-9 2.6-2.45 9.22-2.45h21.17v10.87H16.63q-2.09.22-2.52 2.23v22.04q0 2.37.51 3.16.72 1.23 2.73 1.23h18.94v10.87H13.54q-1.8 0-3.82-.79-6.41-2.52-6.41-10.44m38.52 2.23v-28.8h9.58v26.14q.29 2.08 3.09 2.08h5.91q2.81 0 3.09-2.08.08-.22.08-.58V20.88h9.57v28.8q0 .72-.14 1.73-1.08 7.27-8.86 7.27H50.83q-7.77 0-8.85-7.27-.15-1.01-.15-1.73m37.95-.79V29.74q0-.94.21-1.95 1.51-6.91 9.15-6.91h13.03q7.92 0 8.93 7.56.07.5.07 1.58v7.56L89.5 45.79v.65q0 2.66 1.87 2.66h19.73v9.58H90.07q-3.74 0-5.69-1.08-4.6-2.52-4.6-8.71m9.57-11.59 12.1-4.47v-.36q-.29-1.15-1.8-1.44-.22-.07-.51-.07h-6.69q-2.09 0-2.88 1.44-.22.36-.22 1.01z"/></svg>