<svg xmlns="http://www.w3.org/2000/svg" width="1918" height="310" viewBox="0 0 1920 310"><g filter="url(#a)"><path fill="#F2F2F2" fill-rule="evenodd" d="M-9.5 3h305.147c47.489 0 105.789 0 175.813 59.51 47.995 40.79 92.958 66.482 180.359 66.482h616.861c87.4 0 132.37-25.692 180.36-66.481C1519.06 3 1577.36 3 1624.85 3H1930v319H-9.5z" clip-rule="evenodd"/></g><path fill="#36BFED" d="M295.647 3V.5zM-9.5 3V.5H-12V3zm480.96 59.51 1.619-1.904zm977.58 0 1.62 1.906zM1624.85 3V.5zM1930 3h2.5V.5h-2.5zm0 319v2.5h2.5V322zM-9.5 322H-12v2.5h2.5zM295.647.5H-9.5v5h305.147zm177.432 60.106c-35.293-29.994-67.714-45.054-97.36-52.59C346.115.49 319.377.5 295.647.5v5c23.759 0 49.916.01 78.84 7.362 28.882 7.342 60.622 22.037 95.354 51.554zm178.74 65.886c-43.445 0-76.203-6.384-104.01-17.759-27.818-11.379-50.827-27.812-74.73-48.127l-3.238 3.81c24.091 20.474 47.562 37.282 76.075 48.945 28.524 11.668 61.948 18.131 105.903 18.131zm307.673 0H651.819v5h307.673zm0 5h1.516v-5h-1.516zm1.516 0h307.672v-5H961.008zm307.672 0c43.96 0 77.38-6.463 105.9-18.131 28.52-11.663 51.99-28.47 76.08-48.945l-3.24-3.81c-23.9 20.315-46.91 36.748-74.73 48.127-27.81 11.375-60.56 17.759-104.01 17.759zm181.98-67.076c34.73-29.517 66.47-44.212 95.35-51.554 28.93-7.353 55.08-7.362 78.84-7.362v-5c-23.73 0-50.46-.01-80.07 7.516-29.64 7.536-62.07 22.596-97.36 52.59zM1624.85 5.5H1930v-5h-305.15zM1927.5 3v319h5V3zm2.5 316.5H961.008v5H1930zm-968.992 0h-1.516v5h1.516zm-970.508 5h968.992v-5H-9.5zM-12 3v319h5V3z"/><defs><filter id="a" width="1944.5" height="358" x="-12" y=".5" color-interpolation-filters="sRGB" filterUnits="userSpaceOnUse"><feFlood flood-opacity="0" result="BackgroundImageFix"/><feBlend in="SourceGraphic" in2="BackgroundImageFix" result="shape"/><feColorMatrix in="SourceAlpha" result="hardAlpha" values="0 0 0 0 0 0 0 0 0 0 0 0 0 0 0 0 0 0 127 0"/><feOffset dy="34"/><feGaussianBlur stdDeviation="20"/><feComposite in2="hardAlpha" k2="-1" k3="1" operator="arithmetic"/><feColorMatrix values="0 0 0 0 0 0 0 0 0 0 0 0 0 0 0 0 0 0 0.09 0"/><feBlend in2="shape" result="effect1_innerShadow_4_208"/></filter></defs></svg>