<svg xmlns="http://www.w3.org/2000/svg" preserveAspectRatio="none" viewBox="0 0 179.542 107.843"><path d="M0 53.922V0h179.542v107.843H0Zm149.438 51.815c9.322-.272 15.888-.634 18.013-.994 3.701-.626 6.508-3.486 7.646-7.789.9-3.402 1.538-12.273 1.852-25.768.486-20.819.063-44.007-.997-54.631-.56-5.614-1.342-8.168-3.168-10.342-1.837-2.189-3.678-3.009-7.552-3.364-9.808-.901-39.872-1.284-87.654-1.117-44.462.155-60.194.483-65.493 1.366-4.112.684-6.904 3.788-7.85 8.727-.833 4.343-1.346 12.093-1.643 24.832-.594 25.504.14 51.992 1.651 59.48.98 4.86 3.844 7.965 7.95 8.619 3.354.534 17.027 1.03 35.39 1.283 11.942.165 94.234-.079 101.855-.302"/></svg>