<svg xmlns="http://www.w3.org/2000/svg" width="170" height="170" fill="none"><g filter="url(#a)"><circle cx="85" cy="85" r="81" fill="#D9D9D9"/></g><circle cx="85" cy="85" r="83" stroke="#34BEED" stroke-width="4"/><path fill="#E4E4E4" d="M115.15 63.253c15.588-14.607 16.945-40.334-3.104-47.71A74 74 0 0 0 86.426 11C45.32 11 12 44.435 12 85.679a75 75 0 0 0 2.889 20.674c5.911 20.631 31.797 21.057 47.457 6.382z"/><path fill="#A2A2A2" d="M37 57v8l46.68 22.854a3 3 0 0 0 2.64 0L133 65v-8a4 4 0 0 0-4-4H41a4 4 0 0 0-4 4"/><path fill="#A2A2A2" d="M83.658 96.83 37 73.5V113a4 4 0 0 0 4 4h88a4 4 0 0 0 4-4V73.5L86.342 96.83a3 3 0 0 1-2.684 0"/><defs><filter id="a" width="176" height="176" x="-6" y="-6" color-interpolation-filters="sRGB" filterUnits="userSpaceOnUse"><feFlood flood-opacity="0" result="BackgroundImageFix"/><feBlend in="SourceGraphic" in2="BackgroundImageFix" result="shape"/><feColorMatrix in="SourceAlpha" result="hardAlpha" values="0 0 0 0 0 0 0 0 0 0 0 0 0 0 0 0 0 0 127 0"/><feOffset dx="-6" dy="-6"/><feGaussianBlur stdDeviation="7"/><feComposite in2="hardAlpha" k2="-1" k3="1" operator="arithmetic"/><feColorMatrix values="0 0 0 0 0 0 0 0 0 0 0 0 0 0 0 0 0 0 0.26 0"/><feBlend in2="shape" result="effect1_innerShadow_20_173"/></filter></defs></svg>