<svg xmlns="http://www.w3.org/2000/svg" width="368.234" height="207.234" fill="none"><path stroke="#b4b4b4" stroke-width="5" d="M340.995 4.768h-.008C304.007 2.5 250.064 2.5 184.211 2.5h-.188c-65.853 0-119.797 0-156.776 2.268h-.008A22.464 22.93 0 0 0 6.347 25.039C3.887 45.331 2.5 78.205 2.5 103.617s1.387 58.285 3.847 78.579a22.464 22.93 0 0 0 20.892 20.27h.009c36.977 2.268 90.92 2.268 156.775 2.268h.188c65.853 0 119.797 0 156.776-2.267h.008a22.464 22.93 0 0 0 20.891-20.27c2.46-20.294 3.848-53.206 3.848-78.58s-1.388-58.286-3.848-78.58a22.464 22.93 0 0 0-20.89-20.27Z"/></svg>