<svg xmlns="http://www.w3.org/2000/svg" viewBox="0 50 700 400">
    <path fill="none" stroke="#098d70" stroke-linecap="round" stroke-width="20"
        d="M1.794 209.865C52.616 191.33 210.912 86.1 306.726 98.655s188.94 185.8 269.956 186.547 180.12-151.72 216.143-182.063" />
    <path fill="none" stroke="#25ceaa" stroke-linecap="round" stroke-width="20"
        d="M1.794 229.865C52.616 211.33 210.912 106.1 306.726 118.655s188.94 185.8 269.956 186.547 180.12-151.72 216.143-182.063" />
    <path fill="none" stroke="#98e8c1" stroke-linecap="round" stroke-width="20"
        d="M1.794 249.865C52.616 231.33 210.912 126.1 306.726 138.655s188.94 185.8 269.956 186.547 180.12-151.72 216.143-182.063" />
    <path fill="none" stroke="#fff" stroke-linecap="round" stroke-width="20"
        d="M1.794 269.865C52.616 251.33 210.912 146.1 306.726 158.655s188.94 185.8 269.956 186.547 180.12-151.72 216.143-182.063" />
    <path fill="none" stroke="#7bade1" stroke-linecap="round" stroke-width="20"
        d="M1.794 289.865C52.616 271.33 210.912 166.1 306.726 178.655s188.94 185.8 269.956 186.547 180.12-151.72 216.143-182.063" />
    <path fill="none" stroke="#5049cc" stroke-linecap="round" stroke-width="20"
        d="M1.794 309.865C52.616 291.33 210.912 186.1 306.726 198.655s188.94 185.8 269.956 186.547 180.12-151.72 216.143-182.063" />
    <path fill="none" stroke="#3c1a78" stroke-linecap="round" stroke-width="20"
        d="M1.794 329.865C52.616 311.33 210.912 206.1 306.726 218.655s188.94 185.8 269.956 186.547 180.12-151.72 216.143-182.063" />
</svg>